<svg width="300" height="80" viewBox="0 0 137 36" fill="none" xmlns="http://www.w3.org/2000/svg">
<path fill="#000" stroke="#fff" stroke-width="1" stroke-dasharray="20px" stroke-dashoffset="20px" d="M25.516 16.952C25.624 16.916 25.786 16.898 26.002 16.898C26.614 16.898 26.92 17.294 26.92 18.086C26.92 18.518 26.821 18.887 26.623 19.193C26.443 19.481 26.155 19.661 25.759 19.733C24.121 20.039 22.51 20.381 20.926 20.759L20.845 21.407C20.341 24.953 19.333 27.572 17.821 29.264C16.327 30.974 14.455 31.829 12.205 31.829C10.711 31.829 9.55 31.46 8.722 30.722C7.912 30.002 7.507 29.075 7.507 27.941C7.507 26.051 8.353 24.368 10.045 22.892C11.737 21.416 14.302 20.111 17.74 18.977L18.28 15.17C18.352 14.738 18.442 14.162 18.55 13.442C17.704 15.674 16.624 17.339 15.31 18.437C13.996 19.535 12.529 20.084 10.909 20.084C9.361 20.084 8.182 19.616 7.372 18.68C6.562 17.726 6.157 16.502 6.157 15.008C6.157 14.342 6.229 13.613 6.373 12.821C6.517 12.011 6.742 10.922 7.048 9.554C7.318 8.312 7.516 7.322 7.642 6.584C7.786 5.846 7.858 5.189 7.858 4.613C7.858 3.749 7.525 3.317 6.859 3.317C6.337 3.317 5.716 3.578 4.996 4.1C4.294 4.604 3.547 5.387 2.755 6.449C2.503 6.791 2.224 6.962 1.918 6.962C1.666 6.962 1.441 6.845 1.243 6.611C1.063 6.359 0.973 6.08 0.973 5.774C0.973 5.216 1.225 4.586 1.729 3.884C3.565 1.364 5.716 0.103999 8.182 0.103999C9.28 0.103999 10.135 0.436999 10.747 1.103C11.377 1.769 11.692 2.75 11.692 4.046C11.692 4.982 11.602 5.945 11.422 6.935C11.26 7.907 11.008 9.149 10.666 10.661C10.45 11.561 10.288 12.29 10.18 12.848C10.072 13.388 10.018 13.838 10.018 14.198C10.018 15.116 10.18 15.773 10.504 16.169C10.828 16.565 11.395 16.763 12.205 16.763C13.177 16.763 14.167 16.232 15.175 15.17C16.201 14.09 17.119 12.461 17.929 10.283C18.757 8.105 19.351 5.441 19.711 2.291C19.801 1.499 20.008 0.940999 20.332 0.616998C20.656 0.274999 21.124 0.103999 21.736 0.103999C22.996 0.103999 23.626 0.733999 23.626 1.994C23.626 2.21 23.617 2.381 23.599 2.507C23.221 5.189 22.87 7.61 22.546 9.77C22.366 11.066 22.168 12.398 21.952 13.766C21.754 15.134 21.556 16.52 21.358 17.924C22.672 17.564 24.058 17.24 25.516 16.952ZM17.335 21.812C12.979 23.324 10.801 25.16 10.801 27.32C10.801 27.824 10.954 28.238 11.26 28.562C11.584 28.904 12.034 29.075 12.61 29.075C15.112 29.075 16.678 26.717 17.308 22.001L17.335 21.812ZM39.0318 14.711C39.2658 14.711 39.4458 14.828 39.5718 15.062C39.6978 15.296 39.7608 15.593 39.7608 15.953C39.7608 16.817 39.4998 17.33 38.9778 17.492C37.8978 17.87 36.7098 18.086 35.4138 18.14C35.0718 19.652 34.3968 20.867 33.3888 21.785C32.3808 22.685 31.2378 23.135 29.9598 23.135C28.8798 23.135 27.9528 22.874 27.1788 22.352C26.4228 21.83 25.8468 21.137 25.4508 20.273C25.0548 19.409 24.8568 18.473 24.8568 17.465C24.8568 16.097 25.1178 14.882 25.6398 13.82C26.1618 12.74 26.8818 11.903 27.7998 11.309C28.7178 10.697 29.7348 10.391 30.8508 10.391C32.2188 10.391 33.3168 10.868 34.1448 11.822C34.9908 12.758 35.4858 13.919 35.6298 15.305C36.4758 15.251 37.4838 15.071 38.6538 14.765C38.7978 14.729 38.9238 14.711 39.0318 14.711ZM30.1758 20.273C30.7518 20.273 31.2468 20.039 31.6608 19.571C32.0928 19.103 32.3808 18.428 32.5248 17.546C31.9668 17.168 31.5348 16.673 31.2288 16.061C30.9408 15.449 30.7968 14.801 30.7968 14.117C30.7968 13.829 30.8238 13.541 30.8778 13.253H30.7428C30.0228 13.253 29.4198 13.604 28.9338 14.306C28.4658 14.99 28.2318 15.962 28.2318 17.222C28.2318 18.212 28.4208 18.968 28.7988 19.49C29.1948 20.012 29.6538 20.273 30.1758 20.273ZM40.1975 23.135C39.3875 23.135 38.7215 22.766 38.1995 22.028C37.6955 21.272 37.4435 20.336 37.4435 19.22C37.4435 17.87 37.5335 16.637 37.7135 15.521C37.8935 14.387 38.1905 13.19 38.6045 11.93C38.7845 11.39 39.0365 11.003 39.3605 10.769C39.6845 10.535 40.1975 10.418 40.8995 10.418C41.2955 10.418 41.5655 10.481 41.7095 10.607C41.8715 10.733 41.9525 10.922 41.9525 11.174C41.9525 11.318 41.8535 11.804 41.6555 12.632C41.4755 13.298 41.3315 13.901 41.2235 14.441C40.8635 16.331 40.6835 17.591 40.6835 18.221C40.6835 18.599 40.7285 18.869 40.8185 19.031C40.9085 19.175 41.0525 19.247 41.2505 19.247C41.5205 19.247 41.8535 18.977 42.2495 18.437C42.6635 17.897 43.0955 17.078 43.5455 15.98C44.0135 14.882 44.4635 13.532 44.8955 11.93C45.0395 11.39 45.2555 11.003 45.5435 10.769C45.8495 10.535 46.2995 10.418 46.8935 10.418C47.3075 10.418 47.5955 10.472 47.7575 10.58C47.9195 10.67 48.0005 10.85 48.0005 11.12C48.0005 11.57 47.7755 12.803 47.3255 14.819C46.8215 17.123 46.5695 18.545 46.5695 19.085C46.5695 19.427 46.6415 19.697 46.7855 19.895C46.9295 20.075 47.1185 20.165 47.3525 20.165C47.7125 20.165 48.1355 19.949 48.6215 19.517C49.1255 19.067 49.7915 18.347 50.6195 17.357C50.8355 17.105 51.0785 16.979 51.3485 16.979C51.5825 16.979 51.7625 17.087 51.8885 17.303C52.0325 17.519 52.1045 17.816 52.1045 18.194C52.1045 18.914 51.9335 19.472 51.5915 19.868C50.8175 20.822 49.9805 21.605 49.0805 22.217C48.1985 22.829 47.1905 23.135 46.0565 23.135C45.1925 23.135 44.5535 22.802 44.1395 22.136C43.7435 21.47 43.5455 20.534 43.5455 19.328C43.2395 20.552 42.7805 21.497 42.1685 22.163C41.5565 22.811 40.8995 23.135 40.1975 23.135ZM51.8321 23.135C51.1481 23.135 50.6621 22.775 50.3741 22.055C50.1041 21.335 49.9691 20.183 49.9691 18.599C49.9691 16.259 50.3021 14.036 50.9681 11.93C51.1301 11.408 51.3911 11.03 51.7511 10.796C52.1291 10.544 52.6511 10.418 53.3171 10.418C53.6771 10.418 53.9291 10.463 54.0731 10.553C54.2171 10.643 54.2891 10.814 54.2891 11.066C54.2891 11.354 54.1541 12.002 53.8841 13.01C53.7041 13.73 53.5601 14.36 53.4521 14.9C53.3441 15.44 53.2541 16.106 53.1821 16.898C53.7761 15.35 54.4421 14.09 55.1801 13.118C55.9181 12.146 56.6381 11.453 57.3401 11.039C58.0601 10.625 58.7171 10.418 59.3111 10.418C60.4811 10.418 61.0661 11.003 61.0661 12.173C61.0661 12.875 60.8681 14.144 60.4721 15.98C60.1301 17.546 59.9591 18.581 59.9591 19.085C59.9591 19.805 60.2201 20.165 60.7421 20.165C61.1021 20.165 61.5251 19.949 62.0111 19.517C62.5151 19.067 63.1811 18.347 64.0091 17.357C64.2251 17.105 64.4681 16.979 64.7381 16.979C64.9721 16.979 65.1521 17.087 65.2781 17.303C65.4221 17.519 65.4941 17.816 65.4941 18.194C65.4941 18.914 65.3231 19.472 64.9811 19.868C64.2071 20.822 63.3701 21.605 62.4701 22.217C61.5881 22.829 60.5801 23.135 59.4461 23.135C58.5281 23.135 57.8351 22.874 57.3671 22.352C56.8991 21.812 56.6651 21.038 56.6651 20.03C56.6651 19.526 56.7911 18.626 57.0431 17.33C57.2771 16.196 57.3941 15.413 57.3941 14.981C57.3941 14.693 57.2951 14.549 57.0971 14.549C56.8631 14.549 56.5301 14.855 56.0981 15.467C55.6841 16.061 55.2521 16.853 54.8021 17.843C54.3701 18.833 54.0191 19.877 53.7491 20.975C53.5511 21.821 53.3171 22.397 53.0471 22.703C52.7951 22.991 52.3901 23.135 51.8321 23.135ZM72.4627 11.309C72.9127 11.309 73.2277 11.381 73.4077 11.525C73.6057 11.651 73.7047 11.912 73.7047 12.308C73.7047 12.524 73.6957 12.695 73.6777 12.821C73.6057 13.379 73.3807 14.819 73.0027 17.141C72.7327 18.707 72.5617 19.742 72.4897 20.246C71.8057 24.89 70.8787 28.553 69.7087 31.235C68.5567 33.935 67.0087 35.285 65.0647 35.285C64.1467 35.285 63.3997 34.997 62.8237 34.421C62.2477 33.863 61.9597 33.125 61.9597 32.207C61.9597 30.929 62.4637 29.552 63.4717 28.076C64.4797 26.618 66.3697 24.818 69.1417 22.676L69.3037 21.623C68.9977 22.109 68.5927 22.487 68.0887 22.757C67.6027 23.009 67.1167 23.135 66.6307 23.135C65.5147 23.135 64.6237 22.73 63.9577 21.92C63.2917 21.11 62.9587 20.048 62.9587 18.734C62.9587 17.294 63.2917 15.935 63.9577 14.657C64.6237 13.361 65.5057 12.326 66.6037 11.552C67.7197 10.76 68.8987 10.364 70.1407 10.364C70.5367 10.364 70.7977 10.445 70.9237 10.607C71.0677 10.751 71.1847 11.021 71.2747 11.417C71.6167 11.345 72.0127 11.309 72.4627 11.309ZM67.6027 20.408C68.0167 20.408 68.4127 20.156 68.7907 19.652C69.1687 19.148 69.4387 18.428 69.6007 17.492L70.4647 12.875C69.7267 12.893 69.0427 13.181 68.4127 13.739C67.7827 14.279 67.2787 14.999 66.9007 15.899C66.5227 16.799 66.3337 17.753 66.3337 18.761C66.3337 19.319 66.4417 19.733 66.6577 20.003C66.8917 20.273 67.2067 20.408 67.6027 20.408ZM65.3617 32.666C65.8117 32.666 66.3157 32.126 66.8737 31.046C67.4497 29.966 67.9987 28.247 68.5207 25.889C67.1347 27.077 66.1357 28.148 65.5237 29.102C64.9117 30.056 64.6057 30.893 64.6057 31.613C64.6057 31.919 64.6597 32.171 64.7677 32.369C64.8937 32.567 65.0917 32.666 65.3617 32.666ZM103.995 0.589999C104.553 0.697999 104.967 0.886999 105.237 1.157C105.525 1.427 105.669 1.742 105.669 2.102C105.669 2.696 105.498 3.128 105.156 3.398C104.832 3.668 104.31 3.776 103.59 3.722C101.97 3.596 100.701 3.515 99.7831 3.479C98.8831 3.425 97.6951 3.389 96.2191 3.371C95.5531 6.683 94.9411 10.013 94.3831 13.361C94.1851 14.585 93.9781 16.007 93.7621 17.627C93.5461 19.229 93.4021 20.525 93.3301 21.515C93.2941 22.037 93.0781 22.442 92.6821 22.73C92.2861 23 91.8091 23.135 91.2511 23.135C90.6571 23.135 90.1981 22.991 89.8741 22.703C89.5501 22.415 89.3881 22.037 89.3881 21.569C89.3881 21.137 89.4511 20.426 89.5771 19.436C89.7211 18.428 89.8831 17.375 90.0631 16.277C90.2611 15.179 90.4141 14.225 90.5221 13.415C90.7201 12.047 90.9451 10.688 91.1971 9.338C91.4491 7.988 91.7011 6.71 91.9531 5.504C92.0071 5.234 92.0701 4.928 92.1421 4.586C92.2141 4.226 92.2951 3.83 92.3851 3.398C90.6211 3.452 89.2351 3.596 88.2271 3.83C87.2191 4.064 86.4991 4.397 86.0671 4.829C85.6531 5.243 85.4461 5.783 85.4461 6.449C85.4461 7.061 85.6261 7.646 85.9861 8.204C86.0581 8.33 86.0941 8.465 86.0941 8.609C86.0941 8.951 85.8871 9.275 85.4731 9.581C85.0771 9.869 84.6631 10.013 84.2311 10.013C83.9251 10.013 83.6731 9.923 83.4751 9.743C83.1151 9.437 82.8181 9.005 82.5841 8.447C82.3501 7.871 82.2331 7.223 82.2331 6.503C82.2331 4.973 82.7281 3.749 83.7181 2.831C84.7261 1.895 86.2471 1.211 88.2811 0.779C90.3331 0.346999 92.9611 0.130998 96.1651 0.130998C98.1451 0.130998 99.7201 0.166998 100.89 0.238999C102.078 0.310999 103.113 0.427999 103.995 0.589999ZM102.51 23.135C101.826 23.135 101.34 22.775 101.052 22.055C100.782 21.335 100.647 20.183 100.647 18.599C100.647 16.259 100.98 14.036 101.646 11.93C101.808 11.408 102.069 11.03 102.429 10.796C102.807 10.544 103.329 10.418 103.995 10.418C104.355 10.418 104.607 10.463 104.751 10.553C104.895 10.643 104.967 10.814 104.967 11.066C104.967 11.354 104.832 12.002 104.562 13.01C104.382 13.73 104.238 14.36 104.13 14.9C104.022 15.44 103.932 16.106 103.86 16.898C104.454 15.35 105.12 14.09 105.858 13.118C106.596 12.146 107.316 11.453 108.018 11.039C108.738 10.625 109.395 10.418 109.989 10.418C111.159 10.418 111.744 11.003 111.744 12.173C111.744 12.407 111.663 12.974 111.501 13.874C111.357 14.594 111.285 15.044 111.285 15.224C111.285 15.854 111.51 16.169 111.96 16.169C112.464 16.169 113.112 15.773 113.904 14.981C114.138 14.747 114.381 14.63 114.633 14.63C114.867 14.63 115.047 14.738 115.173 14.954C115.317 15.152 115.389 15.422 115.389 15.764C115.389 16.43 115.209 16.952 114.849 17.33C114.345 17.852 113.751 18.302 113.067 18.68C112.401 19.04 111.69 19.22 110.934 19.22C109.98 19.22 109.251 18.977 108.747 18.491C108.261 18.005 108.018 17.348 108.018 16.52C108.018 16.25 108.045 15.98 108.099 15.71C108.135 15.35 108.153 15.107 108.153 14.981C108.153 14.693 108.054 14.549 107.856 14.549C107.586 14.549 107.226 14.855 106.776 15.467C106.344 16.061 105.912 16.853 105.48 17.843C105.048 18.833 104.697 19.877 104.427 20.975C104.229 21.821 103.995 22.397 103.725 22.703C103.473 22.991 103.068 23.135 102.51 23.135ZM116.201 23.135C115.085 23.135 114.194 22.73 113.528 21.92C112.862 21.11 112.529 20.048 112.529 18.734C112.529 17.294 112.862 15.935 113.528 14.657C114.194 13.361 115.076 12.326 116.174 11.552C117.29 10.76 118.469 10.364 119.711 10.364C120.107 10.364 120.368 10.445 120.494 10.607C120.638 10.751 120.755 11.021 120.845 11.417C121.223 11.345 121.619 11.309 122.033 11.309C122.915 11.309 123.356 11.624 123.356 12.254C123.356 12.632 123.221 13.532 122.951 14.954C122.537 17.024 122.33 18.464 122.33 19.274C122.33 19.544 122.393 19.76 122.519 19.922C122.663 20.084 122.843 20.165 123.059 20.165C123.401 20.165 123.815 19.949 124.301 19.517C124.787 19.067 125.444 18.347 126.272 17.357C126.488 17.105 126.731 16.979 127.001 16.979C127.235 16.979 127.415 17.087 127.541 17.303C127.685 17.519 127.757 17.816 127.757 18.194C127.757 18.914 127.586 19.472 127.244 19.868C126.506 20.786 125.723 21.56 124.895 22.19C124.067 22.82 123.266 23.135 122.492 23.135C121.898 23.135 121.349 22.937 120.845 22.541C120.359 22.127 119.99 21.569 119.738 20.867C118.802 22.379 117.623 23.135 116.201 23.135ZM117.173 20.408C117.569 20.408 117.947 20.174 118.307 19.706C118.667 19.238 118.928 18.617 119.09 17.843L120.089 12.875C119.333 12.893 118.631 13.181 117.983 13.739C117.353 14.279 116.849 14.999 116.471 15.899C116.093 16.799 115.904 17.753 115.904 18.761C115.904 19.319 116.012 19.733 116.228 20.003C116.462 20.273 116.777 20.408 117.173 20.408ZM127.48 23.135C126.796 23.135 126.31 22.775 126.022 22.055C125.752 21.335 125.617 20.183 125.617 18.599C125.617 16.259 125.95 14.036 126.616 11.93C126.778 11.408 127.039 11.03 127.399 10.796C127.777 10.544 128.299 10.418 128.965 10.418C129.325 10.418 129.577 10.463 129.721 10.553C129.865 10.643 129.937 10.814 129.937 11.066C129.937 11.354 129.802 12.002 129.532 13.01C129.352 13.73 129.208 14.36 129.1 14.9C128.992 15.44 128.902 16.106 128.83 16.898C129.424 15.35 130.09 14.09 130.828 13.118C131.566 12.146 132.286 11.453 132.988 11.039C133.708 10.625 134.365 10.418 134.959 10.418C135.535 10.418 135.967 10.571 136.255 10.877C136.561 11.165 136.714 11.597 136.714 12.173C136.714 12.641 136.615 13.523 136.417 14.819C136.237 15.917 136.093 16.961 135.985 17.951C135.877 18.923 135.823 20.012 135.823 21.218C135.823 21.902 135.679 22.397 135.391 22.703C135.121 22.991 134.671 23.135 134.041 23.135C133.447 23.135 133.015 22.982 132.745 22.676C132.475 22.37 132.34 21.911 132.34 21.299C132.34 20.579 132.466 19.391 132.718 17.735C132.934 16.295 133.042 15.377 133.042 14.981C133.042 14.693 132.943 14.549 132.745 14.549C132.511 14.549 132.178 14.855 131.746 15.467C131.332 16.061 130.9 16.853 130.45 17.843C130.018 18.833 129.667 19.877 129.397 20.975C129.199 21.821 128.965 22.397 128.695 22.703C128.443 22.991 128.038 23.135 127.48 23.135Z" />
</svg>
